<?xml version="1.0" encoding="utf-8"?>
<!-- Generator: Adobe Illustrator 22.1.0, SVG Export Plug-In . SVG Version: 6.00 Build 0)  -->
<svg version="1.1" id="Capa_1" xmlns="http://www.w3.org/2000/svg" xmlns:xlink="http://www.w3.org/1999/xlink" x="0px" y="0px"
	 viewBox="0 0 409 269" style="enable-background:new 0 0 409 269;" xml:space="preserve">
<g>
	<g>
		<path d="M-539.7-53.8c5-1.7,14.7-4.2,18,1.8c2,3.7,0.2,9.9-0.3,13.8c-0.5,4.2-0.9,8.5-1.3,12.7c-1.6,17.3-2.7,34.7-3.3,52.1
			c-0.6,17.1-0.7,34.2-0.3,51.2c0.3,11.7,2.5,29.7-8.7,37.5c-7.3,5.1-17.2,2.4-23.4-3.1c-5.4-4.7-9-11-12.1-17.4
			c-6-12.4-9.6-26.2-10.3-40c-1.5-27.1,8-52.7,28.7-70.6c19.6-16.9,45.9-28.5,56.3-53.9c-1-0.3-1.9-0.5-2.9-0.8
			c-1.3,7,2.6,13.5,9.5,15.6c0.6,0.2,1.4-0.1,1.7-0.7c3.7-6.1,1.6-14-4.5-17.6c-1-0.6-2.2,0.2-2.3,1.3c-0.2,5.1,3.9,9.1,8.8,9.6
			c6.7,0.7,11.7-4.8,14.7-10c-0.8,0.1-1.6,0.2-2.4,0.3c2.8,2.5,3.2,6.3,0.7,9.2c-0.8,0.9-0.4,2.1,0.7,2.5c7.8,2.8,16.4-0.5,20.4-7.8
			c-0.6,0.2-1.1,0.5-1.7,0.7C-435-62.3-415-79.6-417.4-99c-0.1-0.6-0.4-1.3-1.1-1.4c-4-0.9-6.5,2.2-7.9,5.6
			c-2.7,6.8-4,14.4-5.5,21.6c-3.1,14.7-4.9,29.7-5.5,44.7c-1.1,30.6,2.9,61.2,12,90.4c0.9-0.4,1.8-0.8,2.7-1.2
			c-12.2-23-20.4-48-24.1-73.9c-1.4-10.1-2.9-23.4,4.6-31.6c5.7-6.2,16.2-6.6,19.3-15.3c-1-0.1-2-0.3-2.9-0.4
			c-0.1,4.2,4.4,6.4,8.1,5c7-2.6,4.4-14.1,11.8-15.7c-0.6-0.2-1.1-0.5-1.7-0.7c2,2.6,3.9,5.2,5.9,7.8c0.6,0.8,2,1.1,2.6,0
			c1.7-3.5,3.8-6.4,6.7-9c-0.8-0.2-1.7-0.4-2.5-0.7c1.6,4.1,5.8,2.5,8.6,0.5c3.2-2.2,5.5-4.3,9.6-4.7c3.9-0.4,8,0.4,11.8,1.4
			c10.3,2.6,23.8,7.1,31.4-3.2c1.1-1.6-1.5-3.1-2.6-1.5c-7.2,9.8-21.6,3-30.9,1.1c-4.1-0.8-8.6-1.4-12.7-0.3
			c-1.9,0.5-3.6,1.3-5.2,2.4c-0.5,0.3-6.3,5.4-7.1,3.6c-0.4-1.1-1.6-1.5-2.5-0.7c-3,2.8-5.3,5.9-7.1,9.6c0.9,0,1.7,0,2.6,0
			c-2-2.6-3.9-5.2-5.9-7.8c-0.4-0.6-1-0.8-1.7-0.7c-2.9,0.7-4.9,2.6-6.3,5.2c-0.7,1.3-1.1,2.7-1.6,4c-0.6,1.6-0.9,3.4-2.1,4.6
			c-1,1.1-6.3,4-6.1-0.2c0.1-1.8-2.4-1.9-2.9-0.4c-1.9,5.4-8.1,7-12.7,9.5c-3.8,2.1-6.9,5-9,9c-4.5,8.6-3.8,19-2.5,28.2
			c3.6,26.7,12.1,52.5,24.7,76.3c0.8,1.5,3.2,0.5,2.7-1.2c-8-25.8-12.1-52.6-12.1-79.6c0-13.5,1-27.1,3.1-40.5
			c0.8-4.9,5.5-40,12.1-38.6c-0.4-0.5-0.7-1-1.1-1.4c2.2,17.4-15.4,33.3-32.5,28.9c-0.6-0.2-1.4,0.1-1.7,0.7
			c-3.4,6.2-10.5,8.8-17,6.4c0.2,0.8,0.4,1.7,0.7,2.5c3.5-4,3.4-9.8-0.7-13.4c-0.7-0.6-1.8-0.6-2.4,0.3c-2,3.4-4.6,7-8.6,8.2
			c-4.3,1.3-9.6-1.4-9.3-6.3c-0.8,0.4-1.5,0.9-2.3,1.3c4.8,2.8,6.3,8.8,3.5,13.5c0.6-0.2,1.1-0.5,1.7-0.7c-5.2-1.6-8.3-6.5-7.4-11.9
			c0.3-1.9-2.2-2.6-2.9-0.8c-11,27.1-41.5,38.2-61.1,57.7c-20.1,20-27,49.2-23.1,76.8c2,14.3,6.8,28.8,14.7,41
			c6.9,10.8,20.8,21,33.7,13.4c10.5-6.1,11.5-20.4,11.4-31.3c-0.2-19.3-0.6-38.5,0-57.8c0.7-22.3,2.2-44.6,4.6-66.8
			c0.7-6.3,3.4-15.4-3.1-19.6c-5.3-3.4-12.8-1.7-18.3,0.1C-542.3-56.1-541.5-53.2-539.7-53.8L-539.7-53.8z"/>
	</g>
</g>
<g>
	<g>
		<path d="M-388.5-32.8c0,24.3,0,48.6,0,72.9c0,12,0,24,0,36c0,3.9,1.9,33.5-2.4,33.6c-5.7,0.1-4.7-58-4.4-64.4
			c0.9-21.4,4.5-43.3,14.5-62.5c2.6-5.1,5.9-10.3,10.9-13.4c5-3.2,13.1-4.5,17.6,0.3c7.3,7.8-10.3,11.2-15.2,12.3
			c-6.8,1.5-13.6,2.4-20.6,2.7c-1.1,0.1-1.9,1.2-1.3,2.3c10.9,18.2,36.6,18.6,48.1,0.8c-0.9-0.5-1.7-1-2.6-1.5
			c-3.1,6.3,4.8,14.9,10.9,9.9c5.2-4.2,1.2-13.1-5-13.3c-1.6-0.1-1.9,2-0.8,2.8c7.1,5,16.8,3.9,22.7-2.4c0.9-1,0-3.1-1.5-2.5
			c-4.2,1.7-4.6,7.6-0.9,10.2c5.5,3.9,10.7-3.2,10.6-8.2c-0.9,0.3-1.9,0.5-2.8,0.8c8.9,12.5,27.9,14.5,39.2,3.9
			c1.4-1.3-0.7-3.4-2.1-2.1c-9.7,9.2-26.7,7.6-34.5-3.3c-0.8-1.1-2.8-0.8-2.8,0.8c-0.1,0.7-0.1,1.5-0.2,2.2
			c-0.4,2.6-1.8,3.4-4.1,2.6c-1.8,0.7-2.7,0.4-2.7-1.1c-0.5-1.1-0.2-2.1,1-2.9c-0.5-0.8-1-1.7-1.5-2.5c-5.1,5.4-13,6.2-19.1,2
			c-0.3,0.9-0.5,1.9-0.8,2.8c2.9,0.1,5,3.6,4.1,6.3c-1.5,5-9.9,0.5-7.4-4.3c0.9-1.7-1.5-3.1-2.6-1.5c-10.3,15.9-33.2,15.4-42.9-0.8
			c-0.4,0.8-0.9,1.5-1.3,2.3c8.7-0.4,17.4-1.7,25.8-4c4.7-1.3,13.7-2.5,14.8-8.4c1-5.1-3.5-9.5-7.9-11c-5.8-2-12.4-0.3-17.3,3.3
			c-11.7,8.6-17,26.2-20.4,39.6c-4.2,16.4-5.4,33.5-5.4,50.3c0,10,0.4,19.9,0.9,29.9c0.4,8.5,0.3,17.5,4.3,25.2
			c0.2,0.4,0.8,0.8,1.3,0.7c8.7-1,6.5-14.4,6.5-20.3c0-14,0-28,0-41.9c0-28,0-55.9,0-83.9C-385.5-34.7-388.5-34.7-388.5-32.8
			L-388.5-32.8z"/>
	</g>
</g>
<g>
	<g>
		<path d="M144.6,86.2c3.9,0,7.8,0.1,11.7,0.1c-0.4-0.8-0.9-1.5-1.3-2.3c-10.1,16.7-12.2,36-12.1,55.1c0,20.1,3.4,41.8-1.5,61.4
			c-2.6,10.4-9.6,20.6-21.2,21.5c-12.3,0.9-18.3-11.9-19-22.3c-1.5-21.9,14.7-39.2,30.7-51.8c17.4-13.7,37.4-25.5,47.9-45.8
			c0.6-1.1-0.4-2.6-1.7-2.2c-7.5,2.2-5.1,13.9,2.5,13.7c4-0.1,7.7-3.4,8.8-7.2c1.8-5.7-1.6-11.2-5.5-15.1c-0.9-0.8-2.1-0.4-2.5,0.7
			c-1.6,4.3,0,8.5,3.8,10.9c0.6,0.4,1.4,0.2,1.8-0.2c6.6-6.5,13.3-13.1,19.9-19.6c-0.8-0.1-1.6-0.2-2.4-0.3
			c1.6,3.6,2.1,7.3,1.5,11.3c-0.2,1.1,0.6,2.1,1.8,1.8c7.2-1.5,13.1-5.4,17.4-11.3c-0.9-0.1-1.8-0.2-2.7-0.4
			c0.6,2.4,1.2,4.8,1.8,7.3c0.2,0.8,1.1,1.3,1.8,1c16.3-5.4,26.3-22.7,23-39.5c-0.2-1.3-2.2-1.5-2.7-0.4
			c-6.1,11.6-7.1,24.5-7.8,37.4c-0.8,15.8-1.5,31.6-2.3,47.3c0.9-0.3,1.9-0.5,2.8-0.8c-4.2-9.6-7.1-20.3-7-30.8
			c0-7.3,2.7-18.3,11.6-18.9c-0.5-0.4-1-0.7-1.4-1.1c1.2,3.5,2.4,7.1,3.6,10.6c0.3,1,1.7,1.6,2.5,0.7c3.4-4.2,6.8-8.3,10.2-12.5
			c-0.8-0.1-1.6-0.2-2.4-0.3c1.3,2.5,2.6,5,3.9,7.5c0.5,0.9,1.7,0.9,2.4,0.3c2-1.9,4.5-5.2,6.9-6.5c4.2-2.1,4.9,1.5,7.9,3.1
			c1.9,1.1,5.4,1.6,6.4-1c1.3-3.3-4.8-6.5-5.4-2c-0.1,0.7,0.5,1.2,1.1,1.4c10.9,4.1,22.1,6.5,33.7,7.1c1.9,0.1,1.9-2.9,0-3
			c-11.3-0.6-22.3-3-33-7c0.4,0.5,0.7,1,1.1,1.4c-0.3,2.3-5.4-2.2-6.4-2.9c-1.2-0.8-2.6-1.6-4.1-1.4c-3.8,0.4-7.8,6.2-10.4,8.6
			c0.8,0.1,1.6,0.2,2.4,0.3c-1.3-2.5-2.6-5-3.9-7.5c-0.4-0.8-1.8-1-2.4-0.3c-3.4,4.2-6.8,8.3-10.2,12.5c0.8,0.2,1.7,0.4,2.5,0.7
			c-1.2-3.5-2.4-7.1-3.6-10.6c-0.2-0.6-0.8-1.1-1.4-1.1c-9.2,0.6-13.2,9.5-14.3,17.6c-1.5,12.2,2.2,25.5,7.1,36.6
			c0.6,1.5,2.7,0.6,2.8-0.8c0.7-14.5,1.4-29.1,2.1-43.6c0.6-13.5,1.1-27.4,7.5-39.6c-0.9-0.1-1.8-0.2-2.7-0.4
			c3,15.2-6.3,30.9-20.9,35.8c0.6,0.3,1.2,0.7,1.8,1c-0.6-2.4-1.2-4.8-1.8-7.3c-0.3-1.4-2-1.3-2.7-0.4c-3.9,5.3-9.2,8.6-15.6,9.9
			c0.6,0.6,1.2,1.2,1.8,1.8c0.8-4.8,0.2-9.1-1.8-13.6c-0.4-0.9-1.7-0.9-2.4-0.3c-6.6,6.5-13.3,13.1-19.9,19.6
			c0.6-0.1,1.2-0.2,1.8-0.2c-2.8-1.8-3.6-4.5-2.4-7.6c-0.8,0.2-1.7,0.4-2.5,0.7c3.7,3.6,7.5,10,3.2,14.8c-1.6,1.8-5.1,3.5-7.3,1.3
			c-1.9-1.9-1.7-6,1.2-6.8c-0.6-0.7-1.1-1.5-1.7-2.2c-10.9,21.1-32.2,32.8-50.1,47.3c-16,13-31.1,31.4-28.8,53.4
			c0.9,8.5,4.7,18,12.8,22c7.4,3.7,16.2,1.3,22.4-3.6c16-12.7,13.4-39.2,13-57.2c-0.7-26-2.9-53.8,11.2-77c0.6-1-0.2-2.2-1.3-2.3
			c-3.9,0-7.8-0.1-11.7-0.1C142.6,83.2,142.6,86.2,144.6,86.2L144.6,86.2z"/>
	</g>
</g>
<g>
	<g>
		<path d="M193.3,156.7c1.4,19.7,0.1,39.5-4,58.8c1,0.1,2,0.3,2.9,0.4c-0.1-14.1-0.3-28.2-0.4-42.3c-0.1-6.7-0.6-14.9,4.8-19.8
			c1.1-1.1,2.4-1.8,3.9-2.2c1.8,1.1,3.6,2.2,5.3,3.2c0.5,1.3-0.9,4.4-1.4,5.5c-1.5,3-3.6,5.2-5.9,7.5c-6.8,6.7,3.2,13.5,9.9,14.6
			c9,1.5,17.1-4.3,19.7-12.7c-1-0.3-1.9-0.5-2.9-0.8c-0.9,4.8-0.2,12.6,6.7,11c7.8-1.8,6.1-10.8,3.2-15.9c-0.7,0.7-1.4,1.4-2.1,2.1
			c9.5,5.5,21.9,2.3,27.6-7.1c0.7-1.1-0.4-2.6-1.7-2.2c-3.9,1.2-8,4.3-7.1,8.9c0.7,3.3,3.9,5.7,7.3,4.4c1.5-0.6,2.6-1.8,3.5-3.1
			c2.9-3.8,3.3-6,9.1-4.9c3.7,0.7,6.8,2.1,10.6,2.1c3.6,0,7.2-0.7,10.6-1.9c1.8-0.6,1-3.5-0.8-2.9c-5.3,1.8-10.8,2.3-16.3,0.9
			c-3-0.8-6.1-2.6-9.2-1.6c-1.7,0.5-2.9,1.8-4,3.1c-0.9,1.1-1.7,3.1-2.8,3.9c-1.5,2.1-3,1-4.5-3.3c1.1-1.6,2.6-2.5,4.5-2.9
			c-0.6-0.7-1.1-1.5-1.7-2.2c-4.9,7.9-15.4,10.6-23.5,6c-1.3-0.8-2.8,0.7-2.1,2.1c1.5,2.7,4.1,7.8,0.7,10.2
			c-1.6,2.2-3.5,1.4-5.6-2.4c0-1.2,0.2-2.4,0.4-3.6c0.4-1.9-2.3-2.7-2.9-0.8c-2.2,7.1-8.9,11.8-16.4,10.5c-2.2-0.4-4.2-1.2-6-2.5
			c-2-1.4-3.5-4-2.6-6.6c0.4-1,2.3-2.2,3.1-3.1c0.7-0.8,1.5-1.9,2.1-2.8c3.6-5.4,5.9-17.3-4.4-16.1c-11.1,1.3-12.3,14.6-12.3,23.2
			c0.1,14.7,0.3,29.5,0.4,44.2c0,1.6,2.6,2.1,2.9,0.4c4.1-19.6,5.5-39.6,4.1-59.6C196.2,154.8,193.2,154.7,193.3,156.7L193.3,156.7z
			"/>
	</g>
</g>
</svg>
